<svg width="70" height="70" viewBox="0 0 70 70" fill="none" xmlns="http://www.w3.org/2000/svg">
<g id="bio" clip-path="url(#clip0_367_651)">
<g id="Group">
<path id="Vector" d="M33.2667 1.20422C33.1684 1.155 30.8057 0 26.2324 0C23.0357 0 16.8927 0.605254 11.6648 4.65883C6.53311 8.63789 3.73338 14.7658 3.33047 22.8814C2.15004 25.967 1.42188 29.2228 1.18385 32.5397C1.14338 33.1045 1.56844 33.5954 2.13322 33.636C2.15824 33.6377 2.18299 33.6387 2.2076 33.6387C2.74039 33.6387 3.19047 33.2265 3.2293 32.6866C3.41701 30.0703 3.92957 27.4947 4.74551 25.0201C6.42031 24.7745 13.6702 23.225 19.8146 14.3497C26.7828 4.28449 32.8578 3.15328 32.9652 3.13482C33.4048 3.0666 33.7507 2.72262 33.8207 2.28279C33.8911 1.84078 33.6669 1.40424 33.2667 1.20422ZM11.439 7.55945V10.6281C9.75311 12.2578 8.2302 14.0596 6.9084 16.0113C6.66709 16.3674 6.43385 16.7285 6.2069 17.093C7.26168 12.8239 9.17533 9.75926 11.439 7.55945ZM5.59358 22.7451C6.37082 20.8797 7.3269 19.0868 8.45154 17.3942H14.5838C12.4404 19.4778 10.38 20.7613 8.80127 21.5343C7.51147 22.1659 6.39885 22.5334 5.59358 22.7451ZM18.1286 13.1821C17.5871 13.9645 17.0364 14.6824 16.4836 15.3433H9.93713C12.8272 11.6651 16.5039 8.64418 20.6821 6.53803C21.1879 6.28318 21.3912 5.66645 21.1362 5.16086C20.8812 4.655 20.2646 4.4517 19.759 4.70682C17.5213 5.83475 15.4189 7.20945 13.4899 8.79498V5.85156C18.2189 2.4891 23.7207 2.05078 26.2324 2.05078C27.5189 2.05078 28.605 2.15031 29.4886 2.28635C26.7734 3.68895 22.6051 6.71617 18.1286 13.1821Z" fill="#CEAD66"/>
<path id="Vector_2" d="M37.3136 3.22939C39.9298 3.4171 42.5056 3.92966 44.9802 4.7456C45.2191 6.3705 46.6873 13.2458 54.8858 19.2692C55.342 19.6046 55.984 19.5064 56.3191 19.0499C56.6545 18.5936 56.5563 17.9518 56.0998 17.6166C55.59 17.242 55.1115 16.8634 54.6566 16.4832V9.93708C58.3348 12.8272 61.3557 16.5038 63.4619 20.6821C63.6422 21.0397 64.0034 21.246 64.3783 21.246C64.5335 21.246 64.691 21.2108 64.839 21.1361C65.3447 20.8813 65.548 20.2645 65.2931 19.759C64.1651 17.5213 62.7904 15.4188 61.2049 13.4899H64.1487C67.511 18.2188 67.9492 23.7207 67.9492 26.2323C67.9492 27.5201 67.8496 28.6071 67.7134 29.491C66.5658 27.2661 64.3334 24.0719 60.032 20.5735C59.5926 20.2163 58.9467 20.2826 58.5895 20.722C58.2321 21.1613 58.2987 21.8073 58.7379 22.1645C65.9757 28.0514 66.8579 32.9209 66.8649 32.9624C66.9322 33.404 67.2778 33.7514 67.7191 33.8209C67.7727 33.8294 67.826 33.8335 67.8791 33.8335C68.2627 33.8335 68.6202 33.6177 68.7958 33.2666C68.845 33.1683 70 30.8057 70 26.2323C70 23.0357 69.3948 16.8927 65.3412 11.6648C61.3621 6.53306 55.2343 3.73347 47.1188 3.33042C44.0332 2.14999 40.7773 1.42183 37.4604 1.1838C36.8977 1.14347 36.4048 1.56826 36.3642 2.13318C36.3236 2.6981 36.7488 3.18892 37.3136 3.22939ZM47.2608 5.59599C49.1242 6.37283 50.915 7.32808 52.606 8.4515V14.5835C49.1 10.9705 47.7579 7.45714 47.2608 5.59599ZM62.4412 11.4389H59.372C57.7424 9.75306 55.9405 8.23015 53.9889 6.90835C53.6325 6.66704 53.2712 6.43353 52.9066 6.20644C57.1762 7.26122 60.2412 9.17501 62.4412 11.4389Z" fill="#CEAD66"/>
<path id="Vector_3" d="M67.8666 36.3643C67.3039 36.3256 66.811 36.7487 66.7704 37.3136C66.5827 39.9299 66.0702 42.5055 65.2542 44.9802C63.5794 45.2257 56.3295 46.7753 50.1851 55.6505C43.2169 65.7157 37.142 66.847 37.0345 66.8654C36.595 66.9336 36.2491 67.2776 36.1791 67.7174C36.1086 68.1592 36.3329 68.5957 36.7332 68.7957C36.8315 68.845 39.1941 70 43.7675 70C46.9641 70 53.1072 69.3947 58.335 65.3411C63.4668 61.3621 66.2663 55.2342 66.6694 47.1187C67.8498 44.0331 68.578 40.7773 68.816 37.4603C68.8566 36.8956 68.4316 36.4047 67.8666 36.3643ZM64.4064 47.255C63.6292 49.1204 62.6731 50.9133 61.5485 52.6059H55.4162C57.5595 50.5223 59.62 49.2388 61.1987 48.4658C62.4885 47.8342 63.6011 47.4667 64.4064 47.255ZM40.5114 67.7138C43.2266 66.3112 47.3949 63.2839 51.8714 56.8178C52.4129 56.0355 52.9636 55.3176 53.5164 54.6567H60.0629C57.1728 58.3348 53.4961 61.3558 49.3179 63.4619C48.8121 63.7168 48.6088 64.3335 48.8638 64.8391C49.0442 65.1968 49.4054 65.4031 49.7802 65.4031C49.9354 65.4031 50.0929 65.3678 50.241 65.2931C52.4787 64.1652 54.5811 62.7905 56.5101 61.205V64.1485C51.7811 67.511 46.2793 67.9493 43.7676 67.9493C42.4811 67.9493 41.395 67.8498 40.5114 67.7138ZM58.561 62.4408V59.3721C60.2469 57.7424 61.7698 55.9406 63.0916 53.989C63.3329 53.6328 63.5661 53.2717 63.7931 52.9072C62.7383 57.1762 60.8247 60.2408 58.561 62.4408Z" fill="#CEAD66"/>
<path id="Vector_4" d="M32.6864 66.7707C27.2289 66.3791 21.948 64.5742 17.394 61.5486V55.4047C19.059 57.111 20.4049 58.9662 21.4132 60.9561C21.6691 61.4612 22.2862 61.6632 22.7913 61.4072C23.2965 61.1513 23.4984 60.5343 23.2425 60.0291C21.3328 56.2606 18.3407 52.9486 14.3495 50.1853C4.24484 43.1899 3.14426 37.0945 3.13551 37.0409C3.06961 36.5984 2.72439 36.2497 2.28252 36.1793C1.84051 36.1089 1.40424 36.3331 1.20422 36.7335C1.155 36.8318 0 39.1944 0 43.7678C0 46.8941 0.581602 52.913 4.47727 58.0974C8.44375 63.3761 14.6363 66.2591 22.883 66.6703C25.9681 67.8504 29.2235 68.5784 32.5397 68.8164C32.5648 68.8182 32.5895 68.8192 32.6141 68.8192C33.1469 68.8192 33.597 68.407 33.6358 67.8671C33.6764 67.302 33.2512 66.8112 32.6864 66.7707ZM2.05078 43.7678C2.05078 42.4812 2.15031 41.3949 2.28621 40.5115C3.68895 43.2268 6.71604 47.3951 13.1821 51.8716C13.943 52.3984 14.6621 52.9469 15.3433 53.5142V60.0631C11.6651 57.173 8.64418 53.4964 6.53803 49.3181C6.28305 48.8123 5.66645 48.609 5.16086 48.8641C4.65514 49.1189 4.45184 49.7357 4.70682 50.2413C5.83475 52.4789 7.20945 54.5814 8.79498 56.5104H5.85635C2.48418 51.7706 2.05078 46.2571 2.05078 43.7678ZM7.56492 58.5611H10.628C12.2577 60.247 14.0595 61.7699 16.0111 63.0917C16.3637 63.3306 16.7211 63.5616 17.0819 63.7865C12.8237 62.7305 9.76172 60.821 7.56492 58.5611Z" fill="#CEAD66"/>
<path id="Vector_5" d="M33.4474 42.812V26.5815C33.4474 26.0153 32.9883 25.5562 32.4221 25.5562C31.8558 25.5562 31.3967 26.0153 31.3967 26.5815V42.812C31.3967 43.3783 31.8558 43.8374 32.4221 43.8374C32.9883 43.8374 33.4474 43.3783 33.4474 42.812Z" fill="#CEAD66"/>
<path id="Vector_6" d="M22.5902 25.5562H17.8757C17.3094 25.5562 16.8503 26.0153 16.8503 26.5815V42.812C16.8503 43.0847 16.959 43.3463 17.1522 43.5386C17.3444 43.73 17.6046 43.8374 17.8757 43.8374H17.8802C17.9236 43.8372 22.2329 43.8181 23.4136 43.8181C26.3879 43.8181 28.8077 41.3983 28.8077 38.424C28.8077 36.3713 27.6549 34.583 25.9629 33.6718C26.8198 32.8106 27.3503 31.6243 27.3503 30.3163C27.3503 27.6914 25.2149 25.5562 22.5902 25.5562ZM22.5902 27.6069C24.0841 27.6069 25.2994 28.8224 25.2994 30.3162C25.2994 31.8099 24.084 33.0254 22.5902 33.0254C22.2452 33.0254 18.9011 33.0297 18.9011 33.0297V27.6068H22.5902V27.6069ZM23.4136 41.7673C22.5915 41.7673 20.2645 41.7765 18.9011 41.7822V35.0883C19.4716 35.086 23.4136 35.0807 23.4136 35.0807C25.2571 35.0807 26.757 36.5805 26.757 38.424C26.757 40.2675 25.2571 41.7673 23.4136 41.7673Z" fill="#CEAD66"/>
<path id="Vector_7" d="M45.3072 43.8374C50.3474 43.8374 54.4478 39.7369 54.4478 34.6968C54.4478 29.6566 50.3474 25.5562 45.3072 25.5562C40.2671 25.5562 36.1666 29.6566 36.1666 34.6968C36.1666 39.7369 40.267 43.8374 45.3072 43.8374ZM45.3072 27.6069C49.2166 27.6069 52.3971 30.7874 52.3971 34.6968C52.3971 38.6061 49.2166 41.7866 45.3072 41.7866C41.3979 41.7866 38.2174 38.6061 38.2174 34.6968C38.2174 30.7874 41.3978 27.6069 45.3072 27.6069Z" fill="#CEAD66"/>
</g>
</g>
<defs>
<clipPath id="clip0_367_651">
<rect width="70" height="70" fill="white"/>
</clipPath>
</defs>
</svg>
