<svg width="70" height="70" viewBox="0 0 70 70" fill="none" xmlns="http://www.w3.org/2000/svg">
<g id="crown 1" clip-path="url(#clip0_367_674)">
<path id="Vector" d="M6.62286 35.8871C7.18309 35.8048 7.57081 35.2836 7.48803 34.7234L6.63514 28.9256C7.38496 28.8546 8.12196 28.6442 8.81356 28.2922C9.50463 27.9403 10.1097 27.4687 10.608 26.9042L23.6235 39.6559C23.9482 39.9737 24.3749 40.1451 24.8161 40.1451C24.9501 40.1451 25.0852 40.1291 25.2193 40.097C25.7955 39.9587 26.2521 39.5411 26.4412 38.9793L32.7719 20.1724C33.4619 20.4464 34.2133 20.5986 35 20.5986C35.7867 20.5986 36.5381 20.4459 37.2286 20.1719L38.0271 22.5452C38.1712 22.9736 38.5707 23.2438 38.999 23.2438C39.1074 23.2438 39.218 23.2267 39.3264 23.1898C39.8626 23.0093 40.1515 22.4277 39.971 21.891L39.0204 19.068C40.2706 17.9566 41.061 16.3379 41.061 14.5376C41.061 11.1954 38.3421 8.47656 35 8.47656C31.6579 8.47656 28.939 11.1954 28.939 14.5376C28.939 16.3379 29.7294 17.9566 30.9802 19.068L27.7358 28.7067L24.7413 24.1917C25.4238 23.0825 25.6695 21.7073 25.3079 20.3524C24.6094 17.7371 21.9135 16.1777 19.2982 16.8757C16.6829 17.5737 15.1229 20.2696 15.8209 22.8849C16.1595 24.1522 16.9708 25.2118 18.1056 25.8681C18.1452 25.8911 18.1857 25.9109 18.2258 25.9328L17.8909 31.1687L11.7039 25.1071C11.7482 24.995 11.7899 24.8817 11.8273 24.7664C12.3282 23.2267 12.1995 21.5839 11.4652 20.1414C10.7308 18.699 9.47847 17.6282 7.93878 17.1278C6.39909 16.6263 4.75686 16.7555 3.31437 17.4899C1.87135 18.2242 0.801098 19.4765 0.300151 21.0162C-0.200261 22.5559 -0.0715528 24.1982 0.662776 25.6406C1.39711 27.0837 2.64947 28.1539 4.18862 28.6549C4.30452 28.6922 4.42094 28.7254 4.53736 28.7558L5.45968 35.0224C5.53445 35.5319 5.97238 35.8983 6.47279 35.8983C6.52246 35.8983 6.57266 35.8945 6.62286 35.8871ZM35 10.5273C37.211 10.5273 39.0103 12.3266 39.0103 14.5376C39.0103 16.7491 37.211 18.5478 35 18.5478C32.789 18.5478 30.9898 16.7491 30.9898 14.5376C30.9898 12.3266 32.789 10.5273 35 10.5273ZM17.8023 22.3562C17.3959 20.8331 18.3038 19.2635 19.8269 18.857C20.0731 18.7914 20.3204 18.7598 20.5639 18.7598C21.8269 18.7598 22.9853 19.6047 23.3266 20.8817C23.733 22.4043 22.8246 23.9744 21.3014 24.3808C20.5639 24.5779 19.7938 24.4759 19.1326 24.0935C18.4715 23.7111 17.9994 23.0937 17.8023 22.3562ZM20.2429 26.5202C20.3471 26.5266 20.4517 26.5304 20.5564 26.5304C20.981 26.5304 21.4093 26.4748 21.8307 26.3622C22.3621 26.2201 22.8491 25.9947 23.2839 25.7047L26.9069 31.1681L24.6708 37.8113L19.8248 33.0635L20.2429 26.5202ZM2.48979 24.7103C2.0038 23.756 1.91888 22.6691 2.25053 21.6507C2.58165 20.6317 3.28981 19.8034 4.2447 19.3174C4.81668 19.0263 5.43565 18.8789 6.05996 18.8789C6.47706 18.8789 6.8963 18.9446 7.30485 19.0776C8.3233 19.4093 9.15162 20.1174 9.63761 21.0718C10.1236 22.0267 10.2085 23.1129 9.87741 24.1319C9.54576 25.1504 8.8376 25.9792 7.88324 26.4652C6.92887 26.9507 5.84207 27.0361 4.82309 26.7045C3.80464 26.3734 2.97578 25.6652 2.48979 24.7103Z" fill="#CEAD66"/>
<path id="Vector_2" d="M69.6998 21.0162C69.1989 19.4765 68.1286 18.2241 66.6856 17.4898C65.2431 16.7555 63.6009 16.6268 62.0612 17.1277C60.5215 17.6287 59.2692 18.6989 58.5348 20.1414C57.8005 21.5844 57.6718 23.2267 58.1727 24.7664C58.2101 24.8817 58.2518 24.9949 58.2956 25.1066L52.1091 31.1686L51.7742 25.9327C51.8143 25.9108 51.8548 25.8911 51.8944 25.8681C53.0298 25.2118 53.841 24.1522 54.1791 22.8849C54.8776 20.2696 53.3176 17.5737 50.7018 16.8757C48.0871 16.1771 45.3906 17.7371 44.6926 20.3524C44.331 21.7073 44.5762 23.083 45.2592 24.1917L42.2653 28.7061L41.4749 26.3594C41.2944 25.8227 40.7128 25.5338 40.1761 25.7148C39.6393 25.8954 39.3509 26.4769 39.5315 27.0137L43.5599 38.9792C43.7489 39.5411 44.2055 39.9587 44.7818 40.097C44.9158 40.1291 45.0509 40.1451 45.185 40.1451C45.6261 40.1451 46.0534 39.9736 46.3781 39.6553L59.3915 26.9037C59.8903 27.4682 60.4954 27.9403 61.1864 28.2922C61.878 28.6447 62.6156 28.8551 63.3654 28.9261L60.1188 50.9806H9.88058L8.18388 39.4508L6.155 39.7493L7.96973 52.0813V59.8021C7.96973 60.7453 8.73717 61.5127 9.68031 61.5127H45.8098C46.3765 61.5127 46.8352 61.0534 46.8352 60.4873C46.8352 59.9212 46.3765 59.4619 45.8098 59.4619H10.0205V53.0314H59.9795V59.4619H50.5298C49.9632 59.4619 49.5045 59.9212 49.5045 60.4873C49.5045 61.0534 49.9632 61.5127 50.5298 61.5127H60.3196C61.2628 61.5127 62.0297 60.7453 62.0297 59.8021V52.077L65.4632 28.7558C65.5796 28.7253 65.6955 28.6922 65.8114 28.6548C67.3505 28.1539 68.6029 27.0836 69.3372 25.6406C70.0721 24.1981 70.2002 22.5554 69.6998 21.0162ZM46.6734 20.8816C47.0804 19.3585 48.65 18.4506 50.1731 18.857C51.6957 19.2634 52.6041 20.833 52.1977 22.3562C52.0006 23.0937 51.5285 23.7111 50.8674 24.0934C50.2067 24.4758 49.4361 24.5778 48.6986 24.3808C47.1754 23.9743 46.267 22.4042 46.6734 20.8816ZM45.3303 37.8112L43.0936 31.1676L46.7161 25.7047C47.1509 25.9947 47.6379 26.2201 48.1693 26.3621C48.5912 26.4748 49.019 26.5303 49.4436 26.5303C49.5482 26.5303 49.6529 26.5266 49.7571 26.5202L50.1752 33.0635L45.3303 37.8112ZM67.5097 24.7103C67.0242 25.6652 66.1954 26.3733 65.1769 26.7045C64.1579 27.0361 63.0716 26.9507 62.1168 26.4652C61.1624 25.9792 60.4542 25.1503 60.1226 24.1319C59.7915 23.1129 59.8764 22.0266 60.3624 21.0717C60.8484 20.1174 61.6772 19.4092 62.6957 19.0776C63.1037 18.9446 63.5229 18.8789 63.9406 18.8789C64.5638 18.8789 65.1833 19.0263 65.7553 19.3174C66.7102 19.8034 67.4183 20.6322 67.7495 21.6507C68.0811 22.6691 67.9957 23.7559 67.5097 24.7103Z" fill="#CEAD66"/>
<path id="Vector_3" d="M35 32.0585C32.1502 32.0585 29.9179 35.7728 29.9179 40.5153C29.9179 45.2577 32.1502 48.9721 35 48.9721C37.8497 48.9721 40.0821 45.2577 40.0821 40.5153C40.0821 35.7728 37.8497 32.0585 35 32.0585ZM35 46.9213C33.566 46.9213 31.9687 44.2905 31.9687 40.5153C31.9687 36.74 33.566 34.1087 35 34.1087C36.4334 34.1087 38.0313 36.74 38.0313 40.5153C38.0313 44.2905 36.4334 46.9213 35 46.9213Z" fill="#CEAD66"/>
<path id="Vector_4" d="M53.5729 48.4235C54.1865 48.4235 54.8001 48.1896 55.2669 47.7228L58.349 44.6408C59.283 43.7067 59.283 42.1868 58.349 41.2527L55.2669 38.1706C54.3328 37.2366 52.8129 37.2366 51.8794 38.1706L48.7968 41.2527C47.8627 42.1868 47.8627 43.7062 48.7968 44.6402L51.8794 47.7228C52.3461 48.1901 52.9598 48.4235 53.5729 48.4235ZM50.2468 42.7027L53.3293 39.6206C53.3966 39.5533 53.4848 39.5197 53.5729 39.5197C53.6615 39.5197 53.7497 39.5533 53.8169 39.6206L56.899 42.7027C57.0336 42.8372 57.0336 43.0562 56.899 43.1908L53.8169 46.2728C53.6824 46.4074 53.4639 46.4069 53.3293 46.2728L50.2468 43.1903C50.1127 43.0562 50.1127 42.8372 50.2468 42.7027Z" fill="#CEAD66"/>
<path id="Vector_5" d="M14.733 38.1706L11.651 41.2527C10.7169 42.1868 10.7169 43.7067 11.651 44.6408L14.733 47.7228C15.2003 48.1901 15.8134 48.4235 16.4271 48.4235C17.0402 48.4235 17.6538 48.1896 18.1206 47.7228L21.2031 44.6408C22.1367 43.7067 22.1367 42.1868 21.2031 41.2527L18.1206 38.1706C17.1865 37.2366 15.6671 37.2366 14.733 38.1706ZM19.7532 43.1908L16.6706 46.2728C16.536 46.4069 16.3176 46.4069 16.183 46.2728L13.1009 43.1908C12.9664 43.0562 12.9664 42.8372 13.1009 42.7027L16.183 39.6206C16.2503 39.5533 16.3389 39.5197 16.4271 39.5197C16.5152 39.5197 16.6038 39.5533 16.6706 39.6206L19.7532 42.7027C19.8872 42.8372 19.8872 43.0562 19.7532 43.1908Z" fill="#CEAD66"/>
</g>
<defs>
<clipPath id="clip0_367_674">
<rect width="70" height="70" fill="white"/>
</clipPath>
</defs>
</svg>
