<svg width="70" height="70" viewBox="0 0 70 70" fill="none" xmlns="http://www.w3.org/2000/svg">
<g id="facial-treatment" clip-path="url(#clip0_367_638)">
<g id="Group">
<g id="Group_2">
<g id="Group_3">
<path id="Vector" d="M63.284 0.0428962C62.7408 -0.118842 62.1703 0.190963 62.0089 0.733736L59.6604 8.63581C59.499 9.17872 59.8084 9.74952 60.3512 9.91084C60.4487 9.93969 60.547 9.95364 60.6438 9.95364C61.0858 9.95364 61.4939 9.66544 61.6263 9.22014L63.9748 1.31794C64.1361 0.775025 63.8268 0.204224 63.284 0.0428962Z" fill="#CEAD66"/>
</g>
<g id="Group_4">
<path id="Vector_2" d="M40.9433 29.1123C40.6855 29.3658 40.2635 29.3649 40.0027 29.1102C39.5976 28.7145 38.9483 28.7221 38.5526 29.1274C38.157 29.5325 38.1648 30.1818 38.5699 30.5774C39.096 31.0912 39.786 31.348 40.4755 31.348C41.166 31.348 41.856 31.0904 42.3805 30.5752C42.7845 30.1783 42.7902 29.5292 42.3935 29.1252C41.9966 28.7215 41.3476 28.7154 40.9433 29.1123Z" fill="#CEAD66"/>
</g>
<g id="Group_5">
<path id="Vector_3" d="M29.9914 29.1123C29.7336 29.3658 29.3117 29.3649 29.0508 29.1102C28.6457 28.7145 27.9964 28.7221 27.6008 29.1274C27.2051 29.5325 27.2129 30.1818 27.618 30.5774C28.1441 31.0912 28.8341 31.348 29.5236 31.348C30.2142 31.348 30.9042 31.0904 31.4286 30.5752C31.8326 30.1783 31.8384 29.5292 31.4416 29.1252C31.0447 28.7215 30.3956 28.7154 29.9914 29.1123Z" fill="#CEAD66"/>
</g>
<g id="Group_6">
<path id="Vector_4" d="M59.5407 12.6384C58.9981 12.4768 58.4272 12.786 58.2654 13.3287L56.9207 17.8476C56.659 18.7273 56.4273 19.442 56.2227 20.0727C55.6106 21.9593 55.2405 23.1004 55.1439 25.3393C55.0975 25.9154 55.0799 26.4776 55.0629 27.0215C54.9892 29.3758 54.9313 31.2354 52.7531 32.9909C52.7338 33.0065 52.7151 33.0226 52.6969 33.0396L46.2511 39.0553C46.0359 39.2568 45.7871 39.284 45.6162 39.2715C45.3205 39.2496 45.0405 39.0982 44.8479 38.8558C44.3803 38.2677 44.9015 37.4452 45.1458 37.1209L48.7382 32.3739C49.3753 32.2958 49.9752 32.03 50.4684 31.5944C51.1124 31.0254 51.4959 30.2417 51.548 29.3905L51.8503 24.6974C51.8867 24.1323 51.4581 23.6446 50.893 23.6083C50.3289 23.5718 49.8403 24.0005 49.8039 24.5656L49.5015 29.2619C49.4826 29.5689 49.3439 29.8514 49.1107 30.0574C48.8776 30.2632 48.5806 30.3657 48.2743 30.3474C47.6406 30.3085 47.1554 29.7564 47.1926 29.1163L47.3826 25.8259C47.5569 22.8008 48.3398 20.9127 50.0009 19.5122C50.1319 19.4014 50.2596 19.3037 50.3945 19.2002C51.0341 18.7102 51.6954 18.2034 52.2251 16.7342L52.4304 16.1683C52.4374 16.1492 52.4437 16.1299 52.4496 16.1105L56.8441 1.31779C57.0054 0.774876 56.696 0.204212 56.1531 0.0428834C55.6099 -0.118445 55.0396 0.191087 54.8782 0.73386L50.4923 15.4973L50.2965 16.0367C50.2044 16.2923 50.1148 16.4923 50.022 16.6587C49.1674 15.0773 47.9123 13.6884 46.3203 12.5755C46.1929 10.7742 45.5055 9.09162 44.3551 7.78869C43.9953 7.38126 43.5948 7.02101 43.1618 6.70861C42.8176 4.2396 41.3048 2.27331 38.8578 1.13677C35.0595 -0.627312 29.8046 0.0297583 26.079 2.73447C22.1502 5.58683 20.3235 10.212 20.9137 15.7802C20.71 16.2346 20.5275 16.6982 20.3658 17.1694C20.1105 16.9204 19.9136 16.6198 19.7027 16.0347L19.5077 15.4976L15.1218 0.733724C14.9605 0.190813 14.3898 -0.118581 13.8469 0.0427467C13.304 0.204075 12.9947 0.774739 13.1559 1.31765L17.5506 16.1103C17.5563 16.1299 17.5628 16.1492 17.5697 16.1682L17.7744 16.7319C18.3049 18.2032 18.9662 18.7099 19.6057 19.2001C19.7408 19.3036 19.8684 19.4013 19.9995 19.5122C21.6604 20.9151 22.4433 22.8033 22.6177 25.8259L22.8076 29.1167C22.8447 29.7563 22.3597 30.3083 21.7258 30.3473C21.0886 30.3869 20.5358 29.8979 20.4947 29.2594L20.1962 24.5663C20.1603 24.0012 19.6741 23.5722 19.1078 23.608C18.5426 23.644 18.1137 24.1312 18.1496 24.6964L18.448 29.3905C18.5489 30.954 19.7601 32.1874 21.2613 32.3733L24.8505 37.121C25.0971 37.4465 25.6199 38.2671 25.1538 38.8537C24.9591 39.0974 24.6776 39.2496 24.3816 39.2713C24.2108 39.2839 23.9611 39.2563 23.7442 39.0545L17.3033 33.0397C17.2849 33.0226 17.2661 33.0061 17.2464 32.9903C15.067 31.236 15.0095 29.3777 14.9368 27.0252C14.92 26.4802 14.9026 25.9169 14.8561 25.3393C14.7596 23.1053 14.3899 21.9675 13.7784 20.0861C13.5723 19.4522 13.3388 18.7336 13.0754 17.8479L7.99107 0.733724C7.82975 0.190813 7.25922 -0.118171 6.71617 0.0427467C6.17326 0.204075 5.864 0.774876 6.0252 1.31765L11.1098 18.4321C11.3806 19.3429 11.6185 20.0745 11.8282 20.72C12.4064 22.4991 12.725 23.4791 12.8082 25.4459C12.8088 25.4592 12.8096 25.4726 12.8107 25.4858C12.8542 26.0188 12.8708 26.5625 12.8872 27.0885C12.9653 29.6135 13.0458 32.2239 15.9306 34.5636L22.3456 40.5542C22.8837 41.0555 23.5739 41.3248 24.3089 41.3248C24.3828 41.3248 24.4572 41.3221 24.532 41.3166C24.5637 41.3143 24.5953 41.3105 24.6269 41.3071C25.7075 42.6171 27.081 43.8999 28.553 44.9519V47.3989L28.3188 47.4587C23.0211 48.8125 13.1601 51.3324 12.7118 58.8035L12.2549 67.752C12.2242 68.2768 12.2486 68.9425 12.7144 69.4363C13.183 69.933 13.8404 70 14.4218 70H55.5782C56.1596 70 56.817 69.933 57.2856 69.4363C57.7514 68.9425 57.7757 68.2768 57.7455 67.7597L57.2876 58.7937C56.8354 51.3295 46.9708 48.8105 41.6712 47.4571L41.447 47.3998V44.9494C42.9182 43.8979 44.2913 42.6163 45.3724 41.3072C45.4035 41.3105 45.4344 41.3143 45.4656 41.3165C45.5406 41.322 45.6153 41.3248 45.6895 41.3248C46.4255 41.3248 47.1153 41.055 47.6513 40.5535L54.0695 34.5634C56.9518 32.2229 57.0336 29.6113 57.1125 27.0855C57.1289 26.5606 57.1458 26.0178 57.1892 25.486C57.1903 25.4727 57.1911 25.4595 57.1917 25.4461C57.2752 23.4736 57.5753 22.5484 58.1731 20.7055C58.3814 20.0637 58.6174 19.3361 58.8861 18.4325L60.2309 13.9137C60.3925 13.3708 60.0835 12.7998 59.5407 12.6384ZM46.1553 15.049C47.1637 15.9404 47.9373 16.9707 48.4678 18.1289C46.7234 19.6935 45.9572 21.6029 45.606 23.4124C44.5528 22.3544 43.346 21.467 42.0313 20.7742C42.5208 20.5365 42.9851 20.2404 43.4156 19.8845C44.8227 18.7213 45.7751 17.0158 46.1553 15.049ZM27.2837 4.39369C30.435 2.10583 34.8392 1.5312 37.9939 2.99642C38.9655 3.44773 40.0911 4.23113 40.7127 5.5588C40.1203 5.40308 39.5004 5.31367 38.8607 5.29835C34.1389 5.18857 29.8118 6.48548 26.3523 9.05074C25.0414 10.0228 23.8881 11.1607 22.9193 12.4229C23.233 9.03502 24.728 6.24923 27.2837 4.39369ZM22.0567 18.6403C22.1525 18.295 22.2592 17.9552 22.377 17.6216C22.4465 17.5909 22.5144 17.5549 22.5779 17.5075C26.0739 14.89 32.8876 13.8341 37.7668 15.1535C38.3137 15.3014 38.8765 14.9779 39.0243 14.4313C39.1722 13.8846 38.8489 13.3216 38.3022 13.1738C33.8678 11.9743 28.1723 12.5104 24.0322 14.332C27.0426 9.87748 32.4669 7.19806 38.8121 7.34859C39.9157 7.37498 40.858 7.67015 41.6347 8.14757C41.6527 8.15933 41.6707 8.17109 41.6894 8.18175C43.3891 9.25636 44.2761 11.2147 44.2909 13.1375C44.2787 15.2847 43.4838 17.1673 42.1091 18.3036C40.9488 19.2628 39.4976 19.6135 37.9125 19.3176C37.8845 19.3124 37.8567 19.3093 37.8289 19.3064C36.9057 19.1312 35.9594 19.0393 35.0001 19.0391C34.9993 19.0391 34.9992 19.0391 34.9984 19.0391C30.9652 19.0391 27.1513 20.6404 24.3935 23.41C24.0796 21.795 23.4341 20.0999 22.0567 18.6403ZM55.2401 58.908L55.6979 67.8719C55.6995 67.8992 55.7007 67.9243 55.7015 67.9474C55.6655 67.9485 55.6246 67.9492 55.5784 67.9492H50.6938V62.0297C50.6938 61.0497 49.8965 60.2525 48.9166 60.2525H37.2634C36.6971 60.2525 36.238 60.7116 36.238 61.2779C36.238 61.8442 36.6971 62.3033 37.2634 62.3033H48.643V67.9492H21.3571V62.3033H32.5314C33.0977 62.3033 33.5568 61.8442 33.5568 61.2779C33.5568 60.7116 33.0977 60.2525 32.5314 60.2525H21.0797C20.1019 60.2525 19.3063 61.0498 19.3063 62.0297V67.9492H14.4218C14.3756 67.9492 14.3347 67.9485 14.2986 67.9474C14.2996 67.9221 14.3009 67.8945 14.3026 67.8643L14.7593 58.9173C15.1175 52.949 23.6991 50.7561 28.8265 49.4458L29.1197 49.3709C30.4109 49.0454 30.6037 48.1056 30.6037 47.5744V46.2253C32.043 46.9815 33.4901 47.4468 34.7785 47.4468C34.8529 47.4468 34.9266 47.4453 34.9999 47.4422C35.0731 47.4452 35.1466 47.4468 35.2209 47.4468C36.5087 47.4467 37.9561 46.9806 39.3962 46.2233V47.5744C39.3962 48.1047 39.5881 49.0433 40.8728 49.3701L41.1638 49.4444C46.2935 50.7541 54.8789 52.9465 55.2401 58.908ZM43.5091 35.8851C42.416 37.3364 42.3139 38.9636 43.2425 40.1318C43.3132 40.2207 43.3882 40.3051 43.4673 40.3852C40.932 43.2866 37.2647 45.5109 35.0552 45.3915C35.0186 45.3895 34.9818 45.3895 34.945 45.3915C32.7327 45.5094 29.0645 43.2864 26.5321 40.3852C26.6112 40.3052 26.6867 40.2207 26.7576 40.1318C27.6881 38.9613 27.5838 37.3331 26.4861 35.8836L23.44 31.8543C24.3499 31.2395 24.9234 30.172 24.8551 28.998L24.693 26.1906C27.1102 22.9444 30.8457 21.0899 34.9985 21.0899H35.0001C35.8362 21.0901 36.6548 21.1663 37.4497 21.3129C37.4782 21.3208 37.507 21.3282 37.5367 21.3337C37.5852 21.3427 37.6336 21.3493 37.6822 21.3575C40.7403 21.9789 43.4242 23.6638 45.3074 26.1942L45.1455 28.9976C45.0771 30.1717 45.6505 31.2391 46.56 31.8541L43.5091 35.8851Z" fill="#CEAD66"/>
</g>
<g id="Group_7">
<path id="Vector_5" d="M36.3725 37.5722C35.6528 38.0114 34.3451 38.0118 33.6289 37.5731C33.146 37.2771 32.5147 37.4291 32.2189 37.9119C31.923 38.3947 32.0748 39.026 32.5577 39.3218C33.2414 39.7407 34.1197 39.9501 34.9986 39.9501C35.8768 39.9501 36.7556 39.7409 37.4408 39.3227C37.9243 39.0276 38.0769 38.3967 37.782 37.9132C37.4871 37.4299 36.8558 37.2771 36.3725 37.5722Z" fill="#CEAD66"/>
</g>
</g>
</g>
</g>
<defs>
<clipPath id="clip0_367_638">
<rect width="70" height="70" fill="white"/>
</clipPath>
</defs>
</svg>
