<svg width="24" height="24" viewBox="0 0 24 24" fill="none" xmlns="http://www.w3.org/2000/svg">
<g id="Heart">
<path id="Vector" d="M12.0027 20.25C12.0027 20.25 2.62769 15 2.62769 8.62501C2.62788 7.49826 3.0183 6.40635 3.73257 5.53493C4.44685 4.66351 5.44088 4.06636 6.54568 3.84501C7.65047 3.62367 8.79783 3.79179 9.79267 4.32079C10.7875 4.84979 11.5685 5.70702 12.0027 6.74673L12.0027 6.74673C12.4369 5.70702 13.2178 4.84979 14.2127 4.32079C15.2075 3.79179 16.3549 3.62367 17.4597 3.84502C18.5645 4.06636 19.5585 4.66351 20.2728 5.53493C20.9871 6.40635 21.3775 7.49826 21.3777 8.62501C21.3777 15 12.0027 20.25 12.0027 20.25Z" fill="#F8F1E3"/>
<path id="Vector_2" d="M12.0027 20.25C12.0027 20.25 2.62769 15 2.62769 8.62501C2.62788 7.49826 3.0183 6.40635 3.73257 5.53493C4.44685 4.66351 5.44088 4.06636 6.54568 3.84501C7.65047 3.62367 8.79783 3.79179 9.79267 4.32079C10.7875 4.84979 11.5685 5.70702 12.0027 6.74673L12.0027 6.74673C12.4369 5.70702 13.2178 4.84979 14.2127 4.32079C15.2075 3.79179 16.3549 3.62367 17.4597 3.84502C18.5645 4.06636 19.5585 4.66351 20.2728 5.53493C20.9871 6.40635 21.3775 7.49826 21.3777 8.62501C21.3777 15 12.0027 20.25 12.0027 20.25Z" stroke="#261D1D" stroke-width="1.5" stroke-linecap="round" stroke-linejoin="round"/>
</g>
</svg>
