<svg width="70" height="70" viewBox="0 0 70 70" fill="none" xmlns="http://www.w3.org/2000/svg">
<g id="medal" clip-path="url(#clip0_367_660)">
<g id="Group">
<path id="Vector" d="M60.8772 29.5947C60.5254 28.7565 60.1932 27.9647 60.1932 27.2947C60.1932 26.6243 60.5254 25.8326 60.8772 24.9942C61.3863 23.7809 61.9128 22.5262 61.6159 21.2203C61.3077 19.865 60.2197 18.9048 59.2598 18.0578C58.5992 17.4748 57.9752 16.9241 57.7031 16.3604C57.4213 15.7767 57.3773 14.9319 57.3304 14.0375C57.2642 12.7725 57.1893 11.3388 56.3392 10.2744C55.485 9.20486 54.1 8.81344 52.8779 8.46822C52.0196 8.22568 51.2087 7.99654 50.7075 7.59637C50.2116 7.20043 49.8109 6.4642 49.3866 5.68477C48.7774 4.56545 48.087 3.29684 46.8461 2.69814C45.627 2.10998 44.2782 2.34514 42.9734 2.57277C42.0864 2.7274 41.2485 2.87355 40.6077 2.72795C40.008 2.59164 39.3375 2.10984 38.6278 1.59961C37.5845 0.849844 36.4022 0 35 0C33.5975 0 32.4151 0.849844 31.3716 1.59961C30.6618 2.10984 29.9912 2.59164 29.3914 2.72809C28.7505 2.87383 27.9125 2.72768 27.0255 2.57305C25.7209 2.34568 24.3718 2.11053 23.1525 2.69869C21.9116 3.29738 21.2212 4.56627 20.6119 5.68572C20.1876 6.46529 19.7869 7.20152 19.291 7.59746C18.7898 7.99777 17.9789 8.22691 17.1206 8.46945C15.8986 8.81481 14.5134 9.20623 13.6593 10.2759C12.8095 11.3403 12.7345 12.7739 12.6685 14.0387C12.6217 14.9331 12.5777 15.7778 12.2961 16.3615C12.0241 16.9251 11.4002 17.4758 10.7395 18.0588C9.77963 18.9059 8.69162 19.8659 8.38373 21.2212C8.08692 22.5269 8.61342 23.7814 9.12256 24.9946C9.47434 25.8327 9.80656 26.6245 9.80656 27.2945C9.80656 27.9649 9.47434 28.7566 9.12256 29.595C8.61342 30.8083 8.08692 32.063 8.38387 33.3689C8.69203 34.7242 9.78004 35.6843 10.7399 36.5314C11.4006 37.1144 12.0246 37.6651 12.2966 38.2287C12.5784 38.8125 12.6224 39.6573 12.6693 40.5517C12.7355 41.8167 12.8104 43.2504 13.6605 44.3148C14.5147 45.3843 15.8997 45.7758 17.1218 46.121C17.9803 46.3634 18.791 46.5925 19.2922 46.9927C19.615 47.2504 19.8974 47.6526 20.1722 48.1167L13.2609 64.264C13.1134 64.6086 13.1657 65.0063 13.3975 65.3011C13.6292 65.5957 14.0034 65.7407 14.3731 65.6787L20.1119 64.7169L23.4197 69.5535C23.6119 69.8346 23.9296 70 24.2658 70C24.299 70 24.3325 69.9984 24.366 69.9951C24.7384 69.9586 25.0614 69.722 25.2088 69.3781L32.0262 53.4507C32.9052 54.0493 33.8826 54.5892 35 54.5892C36.1174 54.5892 37.0948 54.0494 37.9739 53.451L44.7914 69.3781C44.9386 69.7222 45.2616 69.9586 45.6341 69.9951C45.6676 69.9984 45.701 70 45.7343 70C46.0705 70 46.3883 69.8346 46.5805 69.5535L49.8883 64.7169L55.627 65.6787C55.9967 65.7407 56.3709 65.596 56.6027 65.3011C56.8344 65.0063 56.8868 64.6086 56.7392 64.264L49.8278 48.1176C50.1031 47.6528 50.3857 47.2497 50.7089 46.9917C51.2101 46.5914 52.0209 46.3623 52.8793 46.1197C54.1013 45.7744 55.4864 45.383 56.3404 44.3134C57.1903 43.2491 57.2652 41.8154 57.3312 40.5505C57.378 39.6561 57.422 38.8114 57.7037 38.2277C57.9756 37.664 58.5996 37.1134 59.2602 36.5304C60.2201 35.6833 61.308 34.7233 61.616 33.3681C61.9128 32.0623 61.3863 30.8078 60.8772 29.5947ZM24.0581 66.8544L21.4348 63.0185C21.2093 62.6887 20.8127 62.5201 20.419 62.586L15.8845 63.346L21.4566 50.3286C21.8981 50.9685 22.4327 51.5432 23.1539 51.8912C23.5452 52.08 23.9498 52.1832 24.3619 52.2298L21.5018 58.8678C21.2777 59.3879 21.5176 59.9911 22.0377 60.2152C22.1699 60.2722 22.3076 60.2991 22.4429 60.2991C22.84 60.2991 23.218 60.067 23.3851 59.6792L26.6596 52.0797C26.7823 52.0589 26.9046 52.0379 27.0266 52.0166C27.9137 51.8618 28.7514 51.7158 29.3923 51.8614C29.6808 51.927 29.986 52.073 30.3037 52.2632L24.0581 66.8544ZM49.5811 62.586C49.1873 62.5203 48.7907 62.6887 48.5652 63.0185L45.9419 66.8544L39.6964 52.2636C40.0144 52.0732 40.3199 51.9269 40.6086 51.8613C41.2496 51.7155 42.0874 51.8615 42.9747 52.0162C43.0961 52.0373 43.2182 52.0584 43.3403 52.079L46.6151 59.6792C46.7822 60.0671 47.1602 60.2991 47.5572 60.2991C47.6927 60.2991 47.8302 60.2722 47.9624 60.2152C48.4825 59.9911 48.7225 59.3878 48.4984 58.8678L45.638 52.2294C46.0507 52.1828 46.4558 52.0796 46.8475 51.8906C47.5682 51.543 48.1026 50.9688 48.5438 50.3295L54.1155 63.3462L49.5811 62.586ZM59.6162 32.9135C59.4549 33.6234 58.7012 34.2885 57.9033 34.9928C57.1192 35.6847 56.3083 36.4001 55.8566 37.3367C55.3956 38.2922 55.3384 39.3859 55.2832 40.4437C55.2284 41.493 55.1767 42.4844 54.7378 43.0339C54.2947 43.5888 53.3363 43.8596 52.3215 44.1463C51.3049 44.4336 50.2537 44.7307 49.4289 45.3894C48.6094 46.0439 48.0895 46.9993 47.5865 47.9233C47.0803 48.8533 46.6022 49.7317 45.956 50.0436C45.3305 50.3453 44.357 50.1755 43.3265 49.996C42.279 49.8135 41.1958 49.6247 40.1536 49.8616C39.1489 50.0901 38.2757 50.7176 37.4311 51.3245C36.5623 51.9489 35.7416 52.5387 34.9996 52.5387C34.2579 52.5387 33.4374 51.949 32.5687 51.3246C31.7244 50.7177 30.8513 50.0902 29.8465 49.8617C29.4971 49.7823 29.1432 49.7507 28.7875 49.7507C28.0822 49.7507 27.37 49.8749 26.6738 49.9963C25.6434 50.1759 24.6699 50.3459 24.0446 50.0441C23.3983 49.7324 22.9204 48.854 22.4142 47.9242C21.9114 47.0002 21.3913 46.0447 20.5718 45.3904C19.747 44.7318 18.6957 44.4348 17.6792 44.1476C16.6645 43.8609 15.706 43.59 15.2629 43.0352C14.824 42.4855 14.7722 41.4943 14.7172 40.4447C14.662 39.387 14.6047 38.2933 14.1437 37.3376C13.6918 36.4012 12.8811 35.6858 12.0969 34.9938C11.2989 34.2896 10.545 33.6245 10.3837 32.9145C10.2326 32.25 10.612 31.3459 11.0137 30.3886C11.4285 29.4 11.8573 28.3778 11.8573 27.2947C11.8573 26.2117 11.4283 25.1896 11.0135 24.2011C10.6118 23.2441 10.2324 22.3401 10.3834 21.6759C10.5447 20.9661 11.2984 20.3008 12.0965 19.5967C12.8805 18.9048 13.6914 18.1893 14.143 17.2529C14.604 16.2973 14.6612 15.2037 14.7164 14.1459C14.7712 13.0964 14.8229 12.1052 15.2618 11.5557C15.7049 11.0008 16.6634 10.73 17.6781 10.4431C18.6947 10.1559 19.7459 9.85893 20.5706 9.20021C21.3901 8.54574 21.91 7.59035 22.413 6.66613C22.9191 5.73617 23.3972 4.85775 24.0435 4.5459C24.6689 4.24402 25.6423 4.41383 26.673 4.59348C27.7204 4.776 28.8034 4.96494 29.8458 4.72787C30.8506 4.49941 31.7238 3.87188 32.5683 3.26498C33.4373 2.64059 34.258 2.05078 35 2.05078C35.7417 2.05078 36.5622 2.64045 37.4309 3.26484C38.2752 3.87174 39.1483 4.49928 40.1531 4.72773C41.1954 4.96481 42.2785 4.77572 43.3258 4.59307C44.3564 4.41342 45.3295 4.24361 45.955 4.54521C46.6013 4.85693 47.0792 5.73535 47.5852 6.66518C48.0882 7.58912 48.6082 8.54465 49.4278 9.19898C50.2526 9.85756 51.3039 10.1545 52.3204 10.4418C53.3351 10.7285 54.2938 10.9993 54.7369 11.5541C55.1757 12.1038 55.2275 13.0951 55.2825 14.1446C55.3377 15.2023 55.395 16.2961 55.856 17.2517C56.3079 18.1881 57.1186 18.9036 57.9029 19.5955C58.7009 20.2997 59.4548 20.9649 59.6161 21.6748C59.7672 22.3392 59.3878 23.2434 58.9861 24.2007C58.5713 25.1892 58.1424 26.2116 58.1424 27.2947C58.1424 28.3778 58.5714 29.3999 58.9862 30.3883C59.3878 31.3454 59.7672 32.2492 59.6162 32.9135Z" fill="#CEAD66"/>
<g id="Group_2">
<path id="Vector_2" d="M45.8642 17.3753C45.8348 16.8544 45.4191 16.4386 44.8982 16.4092C42.1384 16.2547 39.3091 17.4097 37.1376 19.5812C36.585 20.1339 36.0983 20.729 35.6822 21.3549C34.5453 23.0652 33.9746 25.0899 33.9746 27.1436V33.5755L32.7559 32.3568C32.7514 30.0199 31.726 27.6657 29.8937 25.8337C27.9407 23.8805 25.3964 22.8417 22.9085 22.981C22.3876 23.0104 21.9718 23.4262 21.9424 23.9471C21.8023 26.4333 22.842 28.9793 24.7951 30.9323C26.6212 32.7586 28.9658 33.7854 31.2952 33.7966L33.313 35.8145C33.7396 36.241 33.9745 36.8081 33.9745 37.4113V41.481C33.9745 42.0425 34.4071 42.5321 34.9683 42.5489C35.5489 42.5664 36.0253 42.1007 36.0253 41.5239V28.2994C38.4263 28.1386 40.807 27.0211 42.6922 25.136C44.8637 22.9645 46.0198 20.1358 45.8642 17.3753ZM26.2452 29.4821C24.9933 28.2302 24.2003 26.6326 24.0204 25.0589C25.5942 25.2389 27.1917 26.0318 28.4437 27.2837C29.6956 28.5356 30.4886 30.1332 30.6686 31.7071C29.0949 31.5269 27.497 30.7339 26.2452 29.4821ZM41.2422 23.6858C39.7716 25.1562 37.8816 26.072 36.0317 26.2418C36.2015 24.3918 37.1171 22.502 38.5877 21.0314C40.0582 19.5609 41.9481 18.6451 43.798 18.4755C43.6283 20.3254 42.7127 22.2153 41.2422 23.6858Z" fill="#CEAD66"/>
</g>
<path id="Vector_3" d="M48.9709 14.9792C48.5265 15.3303 48.4508 15.9751 48.8017 16.4196C54.3209 23.407 53.7321 33.4271 47.4322 39.727C41.1324 46.0268 31.1122 46.6157 24.1248 41.0964C23.6804 40.7455 23.0356 40.8211 22.6846 41.2655C22.3335 41.7098 22.4093 42.3547 22.8536 42.7058C26.4329 45.533 30.7241 46.9249 35.0005 46.9249C40.0476 46.9249 45.074 44.9853 48.8823 41.177C55.9175 34.1417 56.5747 22.9519 50.411 15.1484C50.06 14.7039 49.4152 14.6284 48.9709 14.9792Z" fill="#CEAD66"/>
<path id="Vector_4" d="M22.5676 14.8622C28.8675 8.56235 38.8874 7.97351 45.875 13.4928C46.3195 13.8437 46.9642 13.7681 47.3152 13.3237C47.6663 12.8794 47.5905 12.2345 47.1462 11.8834C39.3426 5.7197 28.1527 6.37704 21.1176 13.4122C14.0823 20.4474 13.4251 31.6372 19.5888 39.4408C19.7911 39.697 20.0912 39.8307 20.3942 39.8307C20.6168 39.8307 20.841 39.7586 21.0291 39.6099C21.4735 39.2588 21.5492 38.6141 21.1982 38.1696C15.679 31.1821 16.2678 21.1621 22.5676 14.8622Z" fill="#CEAD66"/>
</g>
</g>
<defs>
<clipPath id="clip0_367_660">
<rect width="70" height="70" fill="white"/>
</clipPath>
</defs>
</svg>
