<svg width="17" height="17" viewBox="0 0 17 17" fill="none" xmlns="http://www.w3.org/2000/svg">
<g id="Star">
<path id="Vector" d="M15.8822 6.4689C15.8159 6.26066 15.6883 6.07725 15.5162 5.9426C15.344 5.80794 15.1353 5.7283 14.9172 5.71405L10.9733 5.43805L9.51032 1.75406C9.43114 1.55039 9.29229 1.37539 9.11196 1.25199C8.93162 1.12858 8.71821 1.06254 8.4997 1.0625H8.49866C8.28048 1.06289 8.0675 1.1291 7.88756 1.25249C7.70762 1.37587 7.5691 1.55068 7.49011 1.75406L6.00531 5.45932L2.08319 5.71405C1.86511 5.7283 1.65638 5.80794 1.48425 5.9426C1.31211 6.07725 1.18456 6.26066 1.11823 6.4689C1.04825 6.6801 1.04349 6.90747 1.10457 7.12141C1.16564 7.33535 1.28971 7.52594 1.46063 7.66837L4.47797 10.2188L3.58044 13.7492C3.51858 13.987 3.52996 14.238 3.61308 14.4692C3.69621 14.7004 3.84721 14.9012 4.04633 15.0452C4.23856 15.185 4.46845 15.2638 4.70607 15.2712C4.94369 15.2786 5.17803 15.2143 5.3786 15.0867L8.49139 13.1147C8.49554 13.1116 8.49969 13.1095 8.50903 13.1147L11.8584 15.2366C12.0402 15.3528 12.2529 15.4114 12.4686 15.4047C12.6842 15.398 12.8929 15.3264 13.0672 15.1993C13.2476 15.0688 13.3845 14.887 13.4598 14.6775C13.5352 14.468 13.5455 14.2407 13.4895 14.0252L12.536 10.1685L15.5398 7.66837C15.7107 7.52594 15.8348 7.33534 15.8959 7.12141C15.9569 6.90747 15.9522 6.6801 15.8822 6.4689Z" fill="#50C8D8"/>
</g>
</svg>
